<svg width="790" height="790" viewBox="0 0 790 790" fill="none" xmlns="http://www.w3.org/2000/svg">
<ellipse cx="233.115" cy="239.548" rx="161.885" ry="159.274" fill="#494947"/>
<ellipse cx="395" cy="159.274" rx="161.885" ry="159.274" fill="#494947"/>
<ellipse cx="556.885" cy="235.725" rx="161.885" ry="159.274" fill="#494947"/>
<ellipse cx="395" cy="454.888" rx="161.885" ry="159.274" fill="#494947"/>
<ellipse cx="628.115" cy="395.001" rx="161.885" ry="159.274" fill="#494947"/>
<ellipse cx="161.885" cy="395.001" rx="161.885" ry="159.274" fill="#494947"/>
<ellipse rx="161.885" ry="159.274" transform="matrix(1 0 0 -1 233.115 550.452)" fill="#494947"/>
<ellipse rx="161.885" ry="159.274" transform="matrix(1 0 0 -1 395 630.726)" fill="#494947"/>
<ellipse rx="161.885" ry="159.274" transform="matrix(1 0 0 -1 556.885 554.275)" fill="#494947"/>
<ellipse rx="161.885" ry="159.274" transform="matrix(1 0 0 -1 628.115 394.999)" fill="#494947"/>
<ellipse rx="161.885" ry="159.274" transform="matrix(1 0 0 -1 161.885 394.999)" fill="#494947"/>
<ellipse cx="247.868" cy="251.355" rx="147.131" ry="147.177" fill="#45733A"/>
<ellipse cx="395" cy="177.177" rx="147.131" ry="147.177" fill="#45733A"/>
<ellipse cx="542.131" cy="247.822" rx="147.131" ry="147.177" fill="#45733A"/>
<ellipse cx="395" cy="450.34" rx="147.131" ry="147.177" fill="#45733A"/>
<ellipse cx="606.868" cy="395" rx="147.131" ry="147.177" fill="#45733A"/>
<ellipse cx="183.131" cy="395" rx="147.131" ry="147.177" fill="#45733A"/>
<ellipse rx="147.131" ry="147.177" transform="matrix(1 0 0 -1 247.868 538.645)" fill="#45733A"/>
<ellipse rx="147.131" ry="147.177" transform="matrix(1 0 0 -1 395 612.823)" fill="#45733A"/>
<ellipse rx="147.131" ry="147.177" transform="matrix(1 0 0 -1 542.131 542.178)" fill="#45733A"/>
<ellipse rx="147.131" ry="147.177" transform="matrix(1 0 0 -1 606.868 395)" fill="#45733A"/>
<ellipse rx="147.131" ry="147.177" transform="matrix(1 0 0 -1 183.131 395)" fill="#45733A"/>
<ellipse cx="261.803" cy="264.735" rx="133.197" ry="133.468" fill="#3F7930"/>
<ellipse cx="394.999" cy="197.468" rx="133.197" ry="133.468" fill="#3F7930"/>
<ellipse cx="528.197" cy="261.532" rx="133.197" ry="133.468" fill="#3F7930"/>
<ellipse cx="394.999" cy="445.185" rx="133.197" ry="133.468" fill="#3F7930"/>
<ellipse cx="586.803" cy="395.001" rx="133.197" ry="133.468" fill="#3F7930"/>
<ellipse cx="203.197" cy="395.001" rx="133.197" ry="133.468" fill="#3F7930"/>
<ellipse rx="133.197" ry="133.468" transform="matrix(1 0 0 -1 261.803 525.265)" fill="#3F7930"/>
<ellipse rx="133.197" ry="133.468" transform="matrix(1 0 0 -1 394.999 592.532)" fill="#3F7930"/>
<ellipse rx="133.197" ry="133.468" transform="matrix(1 0 0 -1 528.197 528.468)" fill="#3F7930"/>
<ellipse rx="133.197" ry="133.468" transform="matrix(1 0 0 -1 586.803 394.999)" fill="#3F7930"/>
<ellipse rx="133.197" ry="133.468" transform="matrix(1 0 0 -1 203.197 394.999)" fill="#3F7930"/>
<ellipse cx="294.253" cy="297.109" rx="100.41" ry="100.806" fill="#488C37"/>
<ellipse cx="394.662" cy="246.303" rx="100.41" ry="100.806" fill="#488C37"/>
<ellipse cx="495.072" cy="294.689" rx="100.41" ry="100.806" fill="#488C37"/>
<ellipse cx="394.662" cy="433.4" rx="100.41" ry="100.806" fill="#488C37"/>
<ellipse cx="539.253" cy="395.496" rx="100.41" ry="100.806" fill="#488C37"/>
<ellipse cx="250.072" cy="395.496" rx="100.41" ry="100.806" fill="#488C37"/>
<ellipse rx="100.41" ry="100.806" transform="matrix(1 0 0 -1 294.253 493.883)" fill="#488C37"/>
<ellipse rx="100.41" ry="100.806" transform="matrix(1 0 0 -1 394.662 544.69)" fill="#488C37"/>
<ellipse rx="100.41" ry="100.806" transform="matrix(1 0 0 -1 495.072 496.303)" fill="#488C37"/>
<ellipse rx="100.41" ry="100.806" transform="matrix(1 0 0 -1 539.253 395.496)" fill="#488C37"/>
<ellipse rx="100.41" ry="100.806" transform="matrix(1 0 0 -1 250.072 395.496)" fill="#488C37"/>
</svg>
